#tb 0: 1/5
0,          0,          0,        1,  3655644, 0x87973530
0,          1,          1,        1,  3655644, 0x87973530
0,          2,          2,        1,  3655644, 0x3c3167fd
0,          5,          5,        1,  3655644, 0x87973530
0,          7,          7,        1,  3655644, 0x3c3167fd
0,         10,         10,        1,  3655644, 0x87973530
0,         11,         11,        1,  3655644, 0x87973530
0,         12,         12,        1,  3655644, 0x3c3167fd
0,         15,         15,        1,  3655644, 0x87973530
0,         18,         18,        1,  3655644, 0x4f0da763
0,         19,         19,        1,  3655644, 0x66a4a763
0,         20,         20,        1,  3655644, 0xb20a7496
0,         23,         23,        1,  3655644, 0x66a4a763
0,         24,         24,        1,  3655644, 0x5600644a
0,         26,         26,        1,  3655644, 0xce5880ee
0,         49,         49,        1,  3655644, 0xa993ef3d
0,         61,         61,        1,  3655644, 0x73564014
0,         64,         64,        1,  3655644, 0x2a6e1e8c
0,         68,         68,        1,  3655644, 0xbae02e7c
0,         72,         72,        1,  3655644, 0x55af4a2d
0,         73,         73,        1,  3655644, 0x54b7ff2d
0,         77,         77,        1,  3655644, 0x39af1aed
0,         82,         82,        1,  3655644, 0xe48dd11c
0,         89,         89,        1,  3655644, 0xba15c78d
0,         96,         96,        1,  3655644, 0x39af1aed
0,        103,        103,        1,  3655644, 0x27f96cd8
0,        110,        110,        1,  3655644, 0xf4f068dc
0,        111,        111,        1,  3655644, 0xf1c55cf5
0,        113,        113,        1,  3655644, 0xd932633d
0,        114,        114,        1,  3655644, 0xc6e95e0a
0,        115,        115,        1,  3655644, 0x9a63c9de
0,        116,        116,        1,  3655644, 0xf166ad4f
0,        117,        117,        1,  3655644, 0xe9eeba41
0,        118,        118,        1,  3655644, 0x7e598ad7
0,        123,        123,        1,  3655644, 0xf3bd257e
0,        127,        127,        1,  3655644, 0xf35b3852
0,        128,        128,        1,  3655644, 0x9d553959
0,        129,        129,        1,  3655644, 0x0a9de8e2
0,        135,        135,        1,  3655644, 0xf2325b6c
0,        137,        137,        1,  3655644, 0xcf924028
0,        139,        139,        1,  3655644, 0x8dae55bc
0,        141,        141,        1,  3655644, 0x57b08ced
0,        143,        143,        1,  3655644, 0xef89a1d8
0,        145,        145,        1,  3655644, 0x69e5503a
0,        147,        147,        1,  3655644, 0xc3de7b3f
0,        149,        149,        1,  3655644, 0x88eea64a
0,        162,        162,        1,  3655644, 0xe39cce1f
0,        166,        166,        1,  3655644, 0xf0ed0d04
0,        171,        171,        1,  3655644, 0x32490d3e
